<?xml version="1.0" standalone="no"?>
<!DOCTYPE svg PUBLIC "-//W3C//DTD SVG 20010904//EN"
 "http://www.w3.org/TR/2001/REC-SVG-20010904/DTD/svg10.dtd">
<svg version="1.0" xmlns="http://www.w3.org/2000/svg"
 width="600.000000pt" height="1050.000000pt" viewBox="0 0 600.000000 1050.000000"
 preserveAspectRatio="xMidYMid meet">
<g transform="translate(0.000000,1050.000000) scale(0.100000,-0.100000)"
fill="#000000" stroke="none">
<path d="M2486 7570 c-327 -38 -570 -139 -719 -300 -58 -62 -107 -144 -107
-178 0 -15 -13 -20 -77 -30 -266 -41 -533 -316 -679 -699 -65 -172 -100 -309
-129 -518 -20 -142 -50 -259 -80 -312 -13 -24 -20 -43 -15 -43 8 0 59 57 92
102 17 23 17 23 18 -27 1 -92 69 -345 93 -345 5 0 6 12 2 28 -49 187 -45 467
9 622 14 42 13 48 -8 27 -36 -36 -69 -144 -75 -244 -1 -15 -6 -21 -15 -17 -10
4 -13 14 -9 32 3 15 7 36 8 47 2 11 4 20 5 20 2 0 4 15 14 105 11 91 53 296
72 350 8 25 16 53 17 62 1 10 4 18 8 18 4 0 11 15 14 33 4 17 11 37 17 43 5 7
8 16 6 20 -5 22 146 297 189 344 13 14 23 28 23 31 0 6 72 77 159 159 38 35
133 89 159 90 6 0 12 5 12 11 0 6 7 9 15 6 8 -4 17 -2 20 3 4 6 24 10 46 10
69 0 102 21 132 84 15 31 26 58 24 59 -1 2 5 11 13 19 8 9 39 41 68 72 51 54
133 115 203 150 53 27 273 95 328 102 14 2 54 7 90 13 265 40 635 8 896 -76
110 -36 326 -122 335 -134 3 -3 28 -18 55 -33 28 -15 64 -35 80 -46 17 -11 37
-23 45 -27 8 -4 20 -12 27 -17 6 -6 24 -21 40 -33 15 -12 46 -35 68 -52 79
-61 198 -188 254 -271 72 -107 126 -207 136 -255 2 -6 13 -37 26 -70 32 -80
54 -84 116 -21 46 47 67 58 57 31 -14 -36 13 -44 132 -40 87 2 122 -1 145 -12
16 -8 36 -16 43 -17 7 -1 25 -9 39 -19 15 -9 30 -17 35 -17 11 0 139 -127 170
-168 29 -40 101 -191 108 -227 3 -15 9 -36 14 -45 5 -9 16 -64 24 -122 26
-172 18 -278 -15 -216 -16 30 -35 48 -43 41 -3 -4 -6 0 -6 7 0 7 -3 11 -6 8
-3 -3 3 -23 14 -45 33 -66 55 -166 50 -232 -2 -34 -1 -61 3 -61 21 0 59 210
59 325 0 332 -142 633 -366 775 -101 63 -248 87 -339 55 -60 -22 -62 -18 -11
21 55 42 139 74 194 74 21 0 62 -7 91 -16 29 -8 55 -13 58 -11 2 3 -22 18 -54
33 -81 40 -193 45 -277 14 -57 -22 -143 -94 -173 -145 -9 -16 -12 -17 -16 -5
-2 8 -14 49 -27 90 -83 276 -311 536 -640 730 -233 138 -472 223 -750 265
-126 19 -424 27 -534 15z"/>
<path d="M1449 6448 c-38 -42 -135 -188 -132 -200 2 -4 -1 -8 -5 -8 -8 0 -55
-93 -111 -221 -32 -73 -61 -189 -61 -246 0 -30 9 -77 22 -110 44 -116 25 -229
-58 -341 -69 -93 -61 -88 -69 -50 -4 18 -14 43 -22 56 -8 13 -16 31 -18 40 -3
9 -14 48 -24 86 -26 89 -44 259 -38 353 4 58 2 73 -9 73 -8 0 -14 -1 -14 -3 0
-1 -5 -40 -10 -86 -18 -144 11 -324 77 -473 l25 -56 -93 -119 c-126 -160 -139
-184 -139 -259 0 -94 54 -166 166 -222 65 -33 68 -40 34 -108 -16 -32 -30 -70
-30 -83 0 -30 38 -97 66 -116 l22 -14 -20 -38 c-33 -65 -12 -135 55 -180 47
-30 60 -65 47 -130 -13 -71 -13 -148 0 -192 23 -83 99 -153 199 -186 76 -25
245 -17 409 20 l124 28 43 -21 c84 -41 114 -110 115 -263 0 -47 5 -101 11
-120 7 -19 43 -77 81 -130 37 -53 84 -130 103 -171 40 -87 85 -236 85 -282 0
-17 4 -37 9 -44 14 -22 21 110 11 199 -17 151 -44 218 -144 362 -59 86 -61 90
-64 162 -3 49 0 75 7 75 20 0 178 99 266 168 203 157 383 385 451 572 25 71
63 204 59 208 -2 2 -17 -22 -34 -54 -43 -83 -62 -110 -133 -182 -136 -138
-312 -225 -683 -337 -251 -76 -462 -118 -590 -117 -95 0 -157 24 -204 78 -44
49 -52 93 -38 191 11 77 14 83 47 105 19 13 45 41 57 63 23 41 30 70 14 60 -6
-3 -35 -10 -65 -16 -58 -10 -109 2 -148 38 -25 22 -22 67 5 99 32 37 99 42
197 15 81 -23 127 -26 150 -11 12 8 11 11 -9 17 -35 9 -113 50 -204 107 l-77
49 -55 -13 c-74 -18 -84 -7 -51 55 30 55 34 119 10 153 -8 12 -41 35 -72 51
-70 36 -117 81 -132 126 -15 47 8 95 97 206 99 122 207 275 239 338 40 81 44
166 10 255 -36 95 -34 154 8 281 45 134 126 295 219 434 46 69 69 111 60 111
-8 0 -28 -15 -44 -32z m-395 -2028 c6 1 31 5 55 9 34 7 53 5 77 -7 52 -24 51
-42 0 -42 -30 0 -55 -8 -82 -26 -28 -19 -39 -23 -43 -13 -2 7 -15 23 -27 36
-13 13 -24 28 -24 33 0 6 -5 10 -11 10 -5 0 -7 5 -4 10 3 6 2 10 -4 10 -6 0
-8 6 -5 14 4 11 11 8 31 -10 14 -13 31 -24 37 -24z m170 -301 c5 -5 -8 -23
-30 -43 -37 -33 -39 -34 -42 -13 -2 12 -9 29 -16 37 -32 38 -30 41 26 34 29
-3 57 -10 62 -15z m1506 -46 c0 -2 -7 -11 -15 -20 -8 -8 -13 -19 -10 -24 4 -5
2 -9 -3 -9 -4 0 -19 -18 -31 -41 -47 -84 -205 -255 -301 -327 -19 -14 -39 -31
-45 -36 -5 -6 -30 -24 -55 -41 -24 -16 -53 -38 -63 -48 -10 -10 -22 -15 -27
-12 -6 4 -10 2 -10 -3 0 -6 -10 -12 -23 -16 -12 -3 -42 -22 -65 -41 -23 -20
-42 -33 -43 -28 -5 97 -42 189 -87 220 -15 10 -46 27 -69 39 l-43 21 78 23
c42 13 82 24 87 25 21 5 181 56 200 64 11 5 65 26 120 46 150 55 287 132 358
201 19 18 47 22 47 7z"/>
<path d="M1460 6358 c-81 -171 -128 -333 -155 -541 -19 -148 -19 -225 0 -352
27 -178 85 -332 175 -465 34 -50 81 -101 69 -75 -3 6 -28 57 -56 115 -101 208
-134 450 -98 726 23 172 35 174 28 4 -13 -330 85 -608 281 -799 25 -25 48 -43
50 -40 3 3 -8 25 -24 49 -16 24 -43 87 -60 140 -33 103 -63 289 -50 304 5 5
11 -4 15 -20 21 -107 42 -172 87 -264 43 -86 66 -119 128 -181 102 -103 226
-159 352 -159 l48 0 -45 62 c-94 127 -144 266 -166 465 -6 57 -16 100 -21 97
-4 -3 -6 -10 -3 -15 4 -5 1 -9 -4 -9 -14 0 -8 -145 9 -215 18 -78 62 -199 74
-207 6 -4 8 -8 3 -8 -4 0 6 -24 23 -53 16 -30 30 -57 30 -61 0 -3 -18 -5 -40
-4 -22 2 -40 6 -40 9 0 4 -12 10 -27 14 -29 7 -163 92 -163 103 0 4 -16 24
-35 44 -19 20 -35 41 -35 47 0 6 -4 11 -10 11 -5 0 -10 6 -10 14 0 8 -3 16 -8
18 -12 5 -79 157 -98 223 -10 33 -27 70 -38 82 -18 22 -21 22 -38 6 -15 -14
-18 -30 -17 -94 1 -42 5 -82 9 -88 3 -6 4 -25 2 -42 -4 -30 -6 -29 -34 32 -16
35 -36 78 -44 94 -35 76 -55 201 -63 383 -5 146 -10 185 -23 198 -14 14 -17
14 -37 -7 -22 -23 -25 -32 -22 -61 1 -10 -3 -18 -9 -18 -6 0 -8 -4 -5 -10 3
-5 0 -19 -8 -30 -13 -19 -14 -16 -10 32 10 142 48 288 128 493 56 143 56 143
44 150 -5 4 -32 -40 -59 -97z"/>
<path d="M2237 6028 c-9 -12 -19 -44 -22 -71 -8 -49 -22 -69 -35 -47 -12 19
-20 -14 -20 -81 0 -74 25 -197 53 -264 25 -61 96 -173 125 -199 29 -26 28 -16
-8 41 -71 116 -105 340 -81 542 6 52 9 97 7 99 -3 2 -11 -7 -19 -20z"/>
<path d="M2281 5953 c4 -54 14 -127 23 -163 29 -108 106 -256 184 -354 l72
-90 0 -87 c0 -225 -73 -482 -168 -590 -17 -20 -29 -39 -25 -42 3 -4 41 12 84
34 162 85 311 263 360 432 7 26 17 47 21 47 11 0 11 -1 -11 -115 -29 -148 -69
-251 -136 -349 -14 -21 -24 -40 -21 -43 6 -7 212 55 255 76 21 11 63 40 94 66
34 27 57 40 57 32 0 -8 -9 -22 -21 -33 -36 -32 -42 -53 -24 -80 11 -17 25 -24
47 -24 26 0 43 11 88 59 30 32 87 79 126 104 65 41 134 110 122 123 -6 6 -112
-64 -116 -77 -2 -5 -8 -9 -14 -9 -13 0 -112 -70 -117 -82 -7 -20 -61 -68 -76
-68 -18 0 -19 5 -4 31 18 35 18 57 -1 74 -22 20 -47 14 -84 -20 -14 -13 -26
-21 -26 -18 0 3 -8 -1 -18 -10 -21 -19 -112 -61 -164 -75 l-36 -10 29 69 c50
117 70 190 76 279 4 71 3 88 -11 99 -9 7 -23 11 -31 7 -16 -6 -75 -120 -75
-143 0 -7 -4 -13 -8 -13 -5 0 -21 -21 -35 -47 -38 -70 -186 -217 -202 -201 -2
2 7 32 21 66 56 139 90 333 81 468 -5 82 -15 112 -49 148 -43 46 -108 145
-143 221 -21 44 -41 87 -46 96 -4 9 -15 54 -24 100 -9 46 -20 98 -26 115 -5
17 -9 37 -9 45 0 8 -6 23 -13 32 -10 14 -11 -1 -6 -80z"/>
<path d="M2145 5922 c-26 -19 -37 -47 -51 -129 -15 -98 -18 -287 -5 -346 10
-42 -4 -61 -24 -34 -21 30 -24 18 -9 -44 23 -97 88 -211 170 -297 75 -80 105
-94 55 -26 -94 127 -150 308 -158 507 -6 128 10 324 29 360 10 19 8 21 -7 9z"/>
<path d="M5176 5659 c-4 -10 -3 -50 2 -90 20 -143 -10 -378 -58 -471 -11 -21
-17 -38 -14 -38 3 0 -2 -7 -10 -16 -9 -8 -16 -23 -16 -32 0 -13 -3 -12 -16 6
-22 32 -31 27 -38 -21 -4 -23 -24 -78 -45 -122 -22 -44 -37 -82 -34 -85 7 -7
89 85 135 153 106 155 163 398 138 589 -11 89 -34 153 -44 127z"/>
<path d="M4998 5049 c-10 -5 -18 -14 -18 -18 0 -5 -16 -34 -36 -64 -20 -31
-35 -59 -34 -62 1 -4 -5 -12 -14 -18 -8 -7 -31 -32 -50 -55 -20 -24 -36 -40
-36 -35 0 4 -4 3 -8 -2 -21 -29 -95 -76 -152 -95 -93 -32 -194 -25 -272 19
-31 17 -60 31 -66 31 -14 0 -56 -44 -72 -77 -23 -46 -80 -115 -200 -242 -62
-66 -122 -135 -133 -153 -32 -52 -67 -147 -81 -218 -11 -59 -15 -65 -37 -65
-33 -1 -53 -15 -71 -49 l-15 -28 -12 48 c-17 68 -39 110 -87 163 -39 44 -110
163 -120 199 -26 103 -34 164 -34 279 0 72 -4 134 -9 137 -29 18 -41 -250 -16
-349 23 -90 97 -233 154 -297 28 -31 51 -60 51 -66 0 -30 80 -244 129 -342 72
-147 138 -245 226 -338 l70 -74 -91 -88 c-190 -182 -421 -335 -769 -511 -311
-157 -634 -280 -933 -357 -125 -32 -148 -47 -138 -86 13 -51 61 -44 351 46
648 201 1234 520 1583 863 79 79 112 118 112 134 0 16 -31 56 -97 125 -73 76
-115 131 -165 215 -63 108 -166 336 -156 346 2 3 23 -4 46 -15 65 -32 67 -30
68 63 1 141 52 237 210 399 113 116 172 189 204 253 14 28 26 52 27 54 2 2 11
-3 20 -11 10 -9 37 -25 61 -37 149 -75 327 -27 476 129 70 74 146 189 146 223
0 9 8 21 18 26 13 8 14 10 2 10 -8 0 -23 -4 -32 -10z m-1242 -1237 c-6 -5 -36
77 -36 96 1 9 9 -8 20 -38 10 -30 17 -56 16 -58z m57 -114 c8 -18 21 -39 30
-47 10 -7 17 -19 17 -27 0 -7 19 -43 41 -79 23 -36 40 -68 37 -70 -2 -2 -12
11 -23 30 -10 19 -22 35 -27 35 -4 0 -8 7 -8 15 0 9 -7 18 -15 21 -8 4 -15 15
-15 25 0 10 -6 19 -12 19 -9 0 -8 4 2 10 8 5 12 10 8 10 -5 0 -11 1 -15 2 -10
3 -33 47 -33 63 0 7 -6 16 -12 18 -10 4 -10 6 -1 6 7 1 19 -14 26 -31z m157
-238 c0 -6 12 -22 26 -35 15 -14 23 -25 19 -25 -5 0 0 -7 11 -15 10 -8 15 -15
11 -15 -12 0 -77 68 -77 80 0 6 -5 8 -12 4 -7 -4 -8 -3 -4 4 9 15 26 16 26 2z
m105 -118 c11 -10 28 -27 37 -38 17 -19 17 -22 -6 -52 -12 -17 -26 -29 -29
-25 -4 3 -7 1 -7 -5 0 -7 -4 -12 -10 -12 -5 0 0 15 11 34 16 28 18 38 8 60 -7
14 -16 23 -22 19 -6 -4 -7 -1 -2 7 4 7 2 16 -6 21 -8 5 -9 9 -4 9 6 -1 19 -9
30 -18z m-195 -300 c-16 -17 -30 -26 -30 -21 0 19 2 24 11 22 4 -2 16 8 26 21
10 13 19 21 21 16 2 -4 -11 -21 -28 -38z m-189 -141 c-25 -25 -61 -44 -69 -37
-3 3 0 6 7 6 7 0 9 4 6 10 -3 5 0 7 8 5 7 -3 22 3 32 15 10 11 22 20 27 20 4
0 -1 -9 -11 -19z m-251 -151 c0 -6 -12 -16 -27 -23 -16 -6 -32 -17 -38 -24 -5
-7 -27 -19 -47 -28 -32 -13 -38 -13 -38 -1 0 9 7 13 23 9 18 -4 19 -3 7 7 -12
9 -11 10 9 5 16 -5 21 -4 17 4 -5 7 -1 8 10 4 11 -4 15 -3 10 5 -3 6 3 14 16
18 12 3 28 13 36 20 16 17 22 18 22 4z m-230 -131 c-44 -27 -88 -40 -95 -28
-3 5 12 12 34 15 23 4 38 10 36 14 -3 5 3 11 12 13 41 11 46 6 13 -14z m-722
-284 c-2 -3 -31 -13 -62 -24 -32 -10 -54 -15 -49 -10 5 5 29 15 54 23 49 15
65 19 57 11z"/>
<path d="M3367 4826 c-65 -128 -148 -234 -221 -283 -55 -38 -97 -42 -151 -16
-33 16 -37 16 -51 1 -24 -23 -11 -59 28 -83 47 -28 130 -26 188 4 63 33 188
164 228 240 36 66 36 87 2 56 -21 -19 -21 -19 -11 8 6 14 19 43 29 64 24 48
32 83 23 106 -5 13 -22 -12 -64 -97z"/>
<path d="M1346 4870 c18 -82 -4 -143 -57 -163 -39 -15 -37 -31 4 -23 41 8 78
35 96 71 16 33 3 89 -30 127 l-20 23 7 -35z"/>
<path d="M1030 4785 c-20 -25 4 -42 68 -48 33 -2 73 -12 90 -21 39 -20 41 -8
5 27 -53 50 -138 72 -163 42z"/>
</g>
</svg>
